HIERARCHY
ROOT Hips
{
    OFFSET 0.000000 0.000000 0.000000
    CHANNELS 6 Xposition Yposition Zposition Zrotation Xrotation Yrotation
    JOINT Spine
    {
        OFFSET -0.000000 7.246840 0.000000
        CHANNELS 3 Zrotation Xrotation Yrotation
        JOINT Spine1
        {
            OFFSET -0.000000 20.289354 0.000000
            CHANNELS 3 Zrotation Xrotation Yrotation
            JOINT Neck
            {
                OFFSET -0.000000 20.206032 1.836912
                CHANNELS 3 Zrotation Xrotation Yrotation
                JOINT Head
                {
                    OFFSET -0.000000 12.372654 -1.767522
                    CHANNELS 3 Zrotation Xrotation Yrotation
                    End Site
                    {
                        OFFSET -0.000000 22.094025 0.000000
                    }
                }
            }
            JOINT LeftShoulder
            {
                OFFSET 3.465871 17.201674 -0.568930
                CHANNELS 3 Zrotation Xrotation Yrotation
                JOINT LeftArm
                {
                    OFFSET 14.070313 0.000000 0.000000
                    CHANNELS 3 Zrotation Xrotation Yrotation
                    JOINT LeftForeArm
                    {
                        OFFSET 26.549477 0.000000 0.000000
                        CHANNELS 3 Zrotation Xrotation Yrotation
                        JOINT LeftHand
                        {
                            OFFSET 18.880413 0.000000 0.000000
                            CHANNELS 3 Zrotation Xrotation Yrotation
                            End Site
                            {
                                OFFSET 13.256415 0.000000 0.000000
                            }
                        }
                    }
                }
            }
            JOINT RightShoulder
            {
                OFFSET -3.526370 17.201674 -0.568930
                CHANNELS 3 Zrotation Xrotation Yrotation
                JOINT RightArm
                {
                    OFFSET -14.070313 0.000000 0.000000
                    CHANNELS 3 Zrotation Xrotation Yrotation
                    JOINT RightForeArm
                    {
                        OFFSET -26.549477 0.000000 0.000000
                        CHANNELS 3 Zrotation Xrotation Yrotation
                        JOINT RightHand
                        {
                            OFFSET -18.880413 0.000000 0.000000
                            CHANNELS 3 Zrotation Xrotation Yrotation
                            End Site
                            {
                                OFFSET -13.256415 0.000000 0.000000
                            }
                        }
                    }
                }
            }
        }
    }
    JOINT LeftUpLeg
    {
        OFFSET 8.837609 0.000000 0.000000
        CHANNELS 3 Zrotation Xrotation Yrotation
        JOINT LeftLeg
        {
            OFFSET -0.000000 -41.345005 0.000000
            CHANNELS 3 Zrotation Xrotation Yrotation
            JOINT LeftFoot
            {
                OFFSET -0.000000 -35.500874 0.000000
                CHANNELS 3 Zrotation Xrotation Yrotation
                JOINT LeftToeBase
                {
                    OFFSET -0.000000 -5.744446 13.256415
                    CHANNELS 3 Zrotation Xrotation Yrotation
                    End Site
                    {
                        OFFSET -0.000000 0.000000 3.535044
                    }
                }
            }
        }
    }
    JOINT RightUpLeg
    {
        OFFSET -8.837609 0.000000 0.000000
        CHANNELS 3 Zrotation Xrotation Yrotation
        JOINT RightLeg
        {
            OFFSET -0.000000 -41.345005 0.000000
            CHANNELS 3 Zrotation Xrotation Yrotation
            JOINT RightFoot
            {
                OFFSET -0.000000 -35.500874 0.000000
                CHANNELS 3 Zrotation Xrotation Yrotation
                JOINT RightToeBase
                {
                    OFFSET -0.000000 -5.744446 13.256415
                    CHANNELS 3 Zrotation Xrotation Yrotation
                    End Site
                    {
                        OFFSET -0.000000 0.000000 3.535044
                    }
                }
            }
        }
    }
}
MOTION
Frames:    10
Frame Time:    0.010000
-4.256009    82.823494    -15.852676    3.635644    4.491318    11.620274    -8.862222    -11.574832    -4.482622    4.072389    1.474128    -3.635037    3.976936    31.909506    -2.161915    -1.923384    -11.586787    -2.094884    19.193270    0.521253    5.873553    -29.380573    15.112170    -13.601480    7.041505    -11.767260    -16.035763    -34.617054    -10.135377    -2.146793    -15.421368    2.194957    11.212816    18.741152    2.864476    4.989355    -5.194701    -8.644924    8.937864    3.374500    -7.860404    13.062780    0.722122    0.642921    -2.291701    -0.490984    -0.589887    -4.039756    -1.721687    -0.256224    -5.015603    -0.196049    -3.372171    0.280233    -7.954867    -0.778659    -7.331002    2.492589    7.752824    2.051608    5.631526    -9.944815    -10.930359    -1.656400    -1.791653    3.029018    
-4.235847    82.825386    -15.842615    3.624758    4.503309    11.579338    -8.849854    -11.580709    -4.466084    4.082659    1.453248    -3.618708    3.977769    31.884874    -2.179877    -1.877778    -11.578071    -2.103353    19.182945    0.540168    5.887480    -29.348806    15.152392    -13.637617    7.016446    -11.692431    -15.914485    -34.556446    -10.080371    -2.120476    -15.413815    2.179466    11.226529    18.697294    3.005083    5.027802    -5.222453    -8.665666    8.921793    3.283954    -7.887730    13.142737    0.722412    0.620178    -2.233686    -0.497880    -0.547286    -3.986054    -1.573346    -0.226376    -4.934262    0.056192    -3.506486    -0.080389    -7.969690    -0.780155    -7.336215    2.509467    7.728845    2.054422    5.668316    -9.917681    -10.885295    -1.643125    -1.796243    3.004906    
-4.226501    82.827202    -15.837395    3.616540    4.506418    11.556181    -8.836342    -11.577127    -4.456747    4.079496    1.436142    -3.610354    3.970081    31.876020    -2.182869    -1.840456    -11.584691    -2.099157    19.186960    0.541004    5.890956    -29.341644    15.207826    -13.639116    7.019734    -11.681986    -15.858987    -34.518650    -10.065804    -2.145968    -15.410546    2.192308    11.227914    18.678484    3.037419    5.054198    -5.242862    -8.688272    8.929325    3.331544    -7.902289    13.168211    0.727361    0.608843    -2.186235    -0.509802    -0.528621    -3.869743    -1.677984    -0.273569    -5.225788    -0.178136    -3.382584    0.254645    -7.975209    -0.784033    -7.335820    2.521209    7.725734    2.046764    5.684364    -9.912068    -10.863358    -1.666986    -1.774242    3.047777    
-4.216437    82.829010    -15.832016    3.610293    4.509938    11.522180    -8.816986    -11.571198    -4.438693    4.061412    1.415740    -3.593803    4.004891    31.848263    -2.204149    -1.840925    -11.567603    -2.116909    19.205587    0.548136    5.901275    -29.349951    15.206672    -13.655319    7.000619    -11.710723    -15.821438    -34.428429    -10.092948    -2.173790    -15.401130    2.186202    11.222657    18.653961    3.087552    5.071650    -5.225055    -8.730591    8.948474    3.360808    -7.941666    13.174836    0.728235    0.603306    -2.149533    -0.491270    -0.507741    -4.084699    -1.705467    -0.298268    -5.027883    -0.185783    -3.384055    0.265578    -7.975546    -0.789917    -7.325710    2.519297    7.714097    2.033648    5.710721    -9.894509    -10.821612    -1.672431    -1.788288    3.058208    
-4.207867    82.831299    -15.826612    3.602138    4.512681    11.492865    -8.817422    -11.561968    -4.430316    4.085459    1.388826    -3.585437    4.026275    31.842901    -2.228263    -1.864595    -11.578010    -2.144773    19.196024    0.561538    5.903405    -29.376968    15.185724    -13.635440    7.006405    -11.768744    -15.807034    -34.407921    -10.133645    -2.233252    -15.406816    2.177856    11.224448    18.630180    3.092235    5.094021    -5.209909    -8.755877    8.951569    3.428150    -7.959065    13.216367    0.735502    0.595063    -2.113913    -0.511800    -0.493927    -3.923120    -1.685846    -0.295344    -5.195771    -0.185925    -3.398494    0.265807    -7.976333    -0.795809    -7.320715    2.519531    7.716679    2.064371    5.705957    -9.880651    -10.836961    -1.665055    -1.812066    3.045535    
-4.197672    82.833076    -15.821341    3.598886    4.514689    11.453785    -8.807537    -11.555548    -4.415236    4.088826    1.366494    -3.571088    4.000790    31.816969    -2.230625    -1.816894    -11.552529    -2.140347    19.191525    0.549805    5.901676    -29.417162    15.107164    -13.597426    6.990358    -11.800954    -15.815952    -34.364147    -10.156446    -2.273262    -15.407831    2.167204    11.230846    18.606705    3.093293    5.105975    -5.184059    -8.766380    8.963989    3.456993    -7.967775    13.215167    0.729814    0.596195    -2.086811    -0.508422    -0.473648    -3.981444    -1.690789    -0.304102    -5.121771    -0.194778    -3.387857    0.278444    -7.982064    -0.800195    -7.314546    2.520759    7.706784    2.047270    5.754096    -9.865900    -10.792251    -1.684041    -1.799326    3.079812    
-4.188228    82.835884    -15.817375    3.595711    4.521338    11.416400    -8.797834    -11.550370    -4.407031    4.078390    1.340555    -3.563228    4.213571    31.861309    -2.270723    -2.062379    -11.626879    -2.207599    19.199028    0.559427    5.917190    -29.447618    15.030105    -13.577330    6.966774    -11.835530    -15.838310    -34.335850    -10.187804    -2.292565    -15.394549    2.148615    11.253100    18.597191    3.072082    5.100128    -5.176826    -8.768421    9.004325    3.488387    -7.966187    13.175637    0.728871    0.592494    -2.082181    -0.518638    -0.465780    -3.925736    -1.679495    -0.300599    -5.145316    -0.188746    -3.401214    0.269843    -7.987891    -0.812618    -7.311835    2.524122    7.705584    2.040978    5.768343    -9.854575    -10.751966    -1.684777    -1.824717    3.082034    
-4.177565    82.838249    -15.812649    3.594357    4.525108    11.380755    -8.790419    -11.538952    -4.393372    4.070732    1.306950    -3.549935    4.238659    31.846487    -2.272536    -2.068515    -11.617920    -2.207629    19.199574    0.556724    5.917926    -29.452852    14.982684    -13.558065    6.961652    -11.889333    -15.905761    -34.340572    -10.290495    -2.121200    -15.391856    2.150760    11.259764    18.592669    3.071030    5.104562    -5.174955    -8.772227    9.015905    3.464722    -7.972248    13.178200    0.716134    0.593170    -2.053335    -0.513615    -0.446899    -3.923619    -1.648283    -0.325428    -5.147799    -0.199908    -3.395106    0.285791    -7.996203    -0.819210    -7.331667    2.518755    7.704592    2.060790    5.795094    -9.856350    -10.718472    -1.681967    -1.796237    3.075915    
-4.165421    82.840080    -15.806782    3.597351    4.525656    11.336570    -8.777664    -11.529699    -4.376574    4.055564    1.277908    -3.533962    4.269299    31.859373    -2.292267    -2.075344    -11.649876    -2.225021    19.204824    0.533226    5.914941    -29.443392    15.021189    -13.526144    6.983319    -11.854405    -15.932714    -34.425003    -10.270183    -2.051919    -15.387006    2.163333    11.267837    18.589981    3.019161    5.122221    -5.177210    -8.757834    9.026898    3.397147    -7.965293    13.164347    0.700335    0.603408    -2.039467    -0.482902    -0.459382    -3.981130    -1.700593    -0.309231    -5.054479    -0.187984    -3.425939    0.268797    -8.012473    -0.818209    -7.336116    2.526353    7.691996    2.081460    5.814435    -9.851997    -10.697789    -1.703228    -1.783479    3.114338    
-4.156053    82.840477    -15.801722    3.593871    4.528958    11.299374    -8.771295    -11.518600    -4.365327    4.050451    1.245945    -3.523007    4.262722    31.843468    -2.286791    -2.031701    -11.647640    -2.210454    19.203737    0.537541    5.926750    -29.420094    15.045779    -13.533723    7.005443    -11.815466    -15.939597    -34.483601    -10.236387    -2.019233    -15.380965    2.172754    11.275764    18.584499    3.003687    5.139770    -5.232697    -8.903160    9.038933    3.374585    -8.111735    13.058086    0.697873    0.612744    -2.061447    -0.495941    -0.465593    -3.843333    -1.666123    -0.320903    -5.158988    -0.208068    -3.407626    0.297479    -8.017323    -0.823502    -7.345970    2.528084    7.685116    2.052362    5.850650    -9.839663    -10.615735    -1.696155    -1.798935    3.101946    
